<svg
  xmlns="http://www.w3.org/2000/svg"
  viewBox="0 0 760 920"
  role="img"
  aria-labelledby="title description"
>
  <title id="title">UVIQ</title>
  <desc id="description">
    Marchio UVIQ con struttura navy, arancione e nucleo AI blu-viola.
  </desc>

  <defs>
    <linearGradient id="uviq-core" x1="0" y1="0" x2="1" y2="1">
      <stop offset="0%" stop-color="#1FA4EA"/>
      <stop offset="55%" stop-color="#328DE8"/>
      <stop offset="100%" stop-color="#6D4FD2"/>
    </linearGradient>
  </defs>

  <path
    fill="#162D4F"
    d="M48 48H390V248L374 238L322 268V332L374 364L390 354V770H48V48Z"
  />

  <path
    fill="#FF6B1A"
    d="M394 48L612 176V466L534 512V770H394V648H510V502L610 444V232L394 104V48Z"
  />

  <path
    fill="#FF6B1A"
    d="M532 476H736V770H532V476Z"
  />

  <rect
    x="472"
    y="648"
    width="38"
    height="122"
    fill="#162D4F"
  />

  <path
    fill="url(#uviq-core)"
    d="M322 268L374 238L430 268V364L374 364L322 332V268Z"
  />
</svg>
